M48
; DRILL file {KiCad (5.1.4)-1} date 19/09/2020 4:07:22 PM
; FORMAT={-:-/ absolute / inch / decimal}
; #@! TF.CreationDate,2020-09-19T16:07:22+10:00
; #@! TF.GenerationSoftware,Kicad,Pcbnew,(5.1.4)-1
; #@! TF.FileFunction,Plated,1,2,PTH
FMAT,2
INCH
T1C0.0157
T2C0.0236
T3C0.0394
T4C0.0579
T5C0.0591
%
G90
G05
T1
X5.045Y-5.4
X5.045Y-6.51
X5.045Y-6.895
X5.0473Y-5.7673
X5.0473Y-6.1477
X5.0935Y-7.0985
X5.14Y-6.695
X5.14Y-7.07
X5.145Y-5.94
X5.145Y-6.325
X5.16Y-5.57
X5.691Y-7.259
X9.2237Y-7.4837
X9.9125Y-7.5275
X10.77Y-7.53
X11.4815Y-7.5585
X12.254Y-7.596
X14.85Y-4.35
X15.22Y-8.255
X15.57Y-6.02
X15.605Y-5.96
X15.65Y-6.87
X15.74Y-6.99
X15.78Y-7.47
X15.82Y-6.485
X15.82Y-6.85
X15.82Y-7.06
X15.87Y-8.4
X15.91Y-6.85
X15.91Y-6.9688
X16.0317Y-6.6267
X16.06Y-5.42
X16.06Y-6.56
X16.06Y-6.73
X16.0675Y-4.6325
X16.0875Y-6.1175
X16.09Y-4.12
X16.095Y-6.585
X16.11Y-5.97
X16.115Y-3.81
X16.15Y-5.155
X16.1559Y-6.7191
X16.16Y-6.15
X16.17Y-5.805
X16.175Y-3.645
X16.18Y-4.545
X16.18Y-4.93
X16.195Y-5.515
X16.195Y-6.24
X16.225Y-4.265
X16.23Y-4.83
X16.2349Y-3.7351
X16.245Y-6.3
X16.27Y-4.31
X16.27Y-4.865
X16.275Y-5.805
X16.28Y-6.33
X16.29Y-5.525
X16.29Y-6.585
X16.305Y-3.95
X16.31Y-6.35
X16.33Y-4.305
X16.33Y-5.97
X16.34Y-6.38
X16.37Y-6.405
X16.37Y-7.66
X16.38Y-4.305
X16.38Y-6.52
X16.4Y-3.98
X16.4062Y-6.8125
X16.42Y-5.46
X16.42Y-7.66
X16.44Y-4.01
X16.44Y-4.305
X16.44Y-6.05
X16.44Y-6.38
X16.44Y-7.7
X16.46Y-7.74
X16.48Y-7.78
X16.485Y-3.98
X16.485Y-8.255
X16.49Y-4.7
X16.49Y-7.84
X16.49Y-7.9
X16.5Y-7.0625
X16.5139Y-6.8089
X16.515Y-6.355
X16.525Y-7.985
X16.55Y-5.9822
X16.55Y-6.99
X16.58Y-6.96
X16.585Y-3.95
X16.59Y-6.465
X16.61Y-6.93
X16.62Y-4.06
X16.65Y-6.91
X16.6875Y-6.9062
X16.72Y-6.72
X16.72Y-6.9375
X16.75Y-6.9062
X16.85Y-6.58
X16.8878Y-5.9822
X16.93Y-6.89
X16.955Y-3.78
X17.0Y-6.67
X17.015Y-3.78
X17.06Y-5.94
X17.1262Y-6.2962
X17.1262Y-6.605
X17.17Y-6.5
X17.2011Y-6.4711
X17.23Y-6.5
X17.23Y-8.4
X17.265Y-5.755
X17.265Y-6.885
X17.275Y-6.13
X17.275Y-6.505
X17.285Y-7.025
X17.2975Y-5.3475
X17.3Y-8.17
X17.33Y-5.515
X17.33Y-5.89
X17.33Y-6.275
X17.33Y-6.64
T3
X16.8969Y-3.6875
X16.8969Y-4.2584
X16.9953Y-3.6875
X17.0938Y-3.6875
X17.0938Y-4.2584
T4
X6.725Y-4.8062
X6.975Y-4.7062
X13.475Y-7.8062
X13.725Y-7.7062
X14.975Y-3.8687
X15.225Y-3.7687
X10.475Y-4.8062
X10.725Y-4.7062
X13.6625Y-7.0562
X13.9125Y-6.9562
X13.475Y-4.8062
X13.725Y-4.7062
X12.9125Y-7.0562
X13.1625Y-6.9562
X10.1Y-5.5562
X10.35Y-5.4562
X14.225Y-3.8687
X14.475Y-3.7687
X5.5062Y-6.3062
X5.7562Y-6.2062
X15.5375Y-5.5562
X15.7875Y-5.4562
X9.5375Y-6.3062
X9.7875Y-6.2062
X16.85Y-4.8062
X17.1Y-4.7062
X14.225Y-7.8062
X14.475Y-7.7062
X5.3187Y-7.8062
X5.5687Y-7.7062
X11.6Y-3.8687
X11.85Y-3.7687
X15.9125Y-7.9937
X16.1625Y-7.8937
X11.6Y-5.5562
X11.85Y-5.4562
X12.1625Y-7.0562
X12.4125Y-6.9562
X15.1625Y-7.9937
X15.4125Y-7.8937
X5.4125Y-5.5562
X5.6625Y-5.4562
X6.5375Y-6.3062
X6.7875Y-6.2062
X9.9125Y-7.0562
X10.1625Y-6.9562
X14.225Y-4.8062
X14.475Y-4.7062
X5.6937Y-7.0562
X5.9437Y-6.9562
X8.225Y-4.8062
X8.475Y-4.7062
X6.2562Y-7.8062
X6.5062Y-7.7062
X6.725Y-3.8687
X6.975Y-3.7687
X15.725Y-3.8687
X15.975Y-3.7687
X7.2875Y-6.3062
X7.5375Y-6.2062
X8.975Y-3.8687
X9.225Y-3.7687
X13.475Y-3.8687
X13.725Y-3.7687
X15.2562Y-6.3062
X15.5062Y-6.2062
X10.85Y-3.8687
X11.1Y-3.7687
X8.0375Y-6.3062
X8.2875Y-6.2062
X8.975Y-4.8062
X9.225Y-4.7062
X10.2875Y-6.3062
X10.5375Y-6.2062
X6.9125Y-7.0562
X7.1625Y-6.9562
X6.35Y-5.5562
X6.6Y-5.4562
X15.9125Y-7.2437
X16.1625Y-7.1437
X10.6625Y-7.0562
X10.9125Y-6.9562
X8.7875Y-6.3062
X9.0375Y-6.2062
X5.975Y-4.8062
X6.225Y-4.7062
X13.85Y-5.5562
X14.1Y-5.4562
X11.7875Y-6.3062
X12.0375Y-6.2062
X14.6937Y-7.0562
X14.9437Y-6.9562
X10.0062Y-7.8062
X10.2562Y-7.7062
X9.35Y-5.5562
X9.6Y-5.4562
X5.3187Y-6.3062
X5.5687Y-6.2062
X16.85Y-7.0562
X17.1Y-6.9562
X10.1Y-3.8687
X10.35Y-3.7687
X12.725Y-4.8062
X12.975Y-4.7062
X9.1625Y-7.0562
X9.4125Y-6.9562
X15.35Y-4.8062
X15.6Y-4.7062
X16.85Y-6.3062
X17.1Y-6.2062
X7.475Y-4.8062
X7.725Y-4.7062
X16.6625Y-7.9937
X16.9125Y-7.8937
X11.0375Y-6.3062
X11.2875Y-6.2062
X11.225Y-4.8062
X11.475Y-4.7062
X5.225Y-3.8687
X5.475Y-3.7687
X7.1937Y-7.8062
X7.4437Y-7.7062
X8.225Y-3.8687
X8.475Y-3.7687
X7.1Y-5.5562
X7.35Y-5.4562
X14.0375Y-6.3062
X14.2875Y-6.2062
X7.6625Y-7.0562
X7.9125Y-6.9562
X5.225Y-4.8062
X5.475Y-4.7062
X16.85Y-5.5562
X17.1Y-5.4562
X10.85Y-5.5562
X11.1Y-5.4562
X11.975Y-4.8062
X12.225Y-4.7062
X12.5375Y-6.3062
X12.7875Y-6.2062
X13.1Y-5.5562
X13.35Y-5.4562
X12.35Y-3.8687
X12.6Y-3.7687
X14.6Y-5.5562
X14.85Y-5.4562
X12.35Y-5.5562
X12.6Y-5.4562
X12.725Y-7.8062
X12.975Y-7.7062
X7.85Y-5.5562
X8.1Y-5.4562
X11.4125Y-7.0562
X11.6625Y-6.9562
X8.6Y-5.5562
X8.85Y-5.4562
X8.4125Y-7.0562
X8.6625Y-6.9562
X7.475Y-3.8687
X7.725Y-3.7687
X9.725Y-4.8062
X9.975Y-4.7062
X13.2875Y-6.3062
X13.5375Y-6.2062
T2
G00X16.2699Y-3.6456
M15
G01X16.2699Y-3.6692
M16
G05
G00X16.2699Y-3.8003
M15
G01X16.2699Y-3.8436
M16
G05
G00X16.6101Y-3.6456
M15
G01X16.6101Y-3.6692
M16
G05
G00X16.6101Y-3.8003
M15
G01X16.6101Y-3.8436
M16
G05
T5
G00X16.7749Y-3.9572
M15
G01X16.7749Y-4.0084
M16
G05
G00X17.2158Y-3.9572
M15
G01X17.2158Y-4.0084
M16
G05
T0
M30
