M48
; DRILL file {KiCad (5.1.4)-1} date 19/09/2020 4:07:22 PM
; FORMAT={-:-/ absolute / inch / decimal}
; #@! TF.CreationDate,2020-09-19T16:07:22+10:00
; #@! TF.GenerationSoftware,Kicad,Pcbnew,(5.1.4)-1
; #@! TF.FileFunction,NonPlated,1,2,NPTH
FMAT,2
INCH
T1C0.0256
T2C0.0689
T3C0.1200
T4C0.1570
%
G90
G05
T1
X16.3262Y-3.8011
X16.5538Y-3.8011
T2
X15.3Y-4.9062
X15.7Y-4.9062
X16.8Y-6.4062
X17.2Y-6.4062
X7.425Y-4.9062
X7.825Y-4.9062
X16.6125Y-8.0938
X17.0125Y-8.0938
X10.9875Y-6.4062
X11.3875Y-6.4062
X11.175Y-4.9062
X11.575Y-4.9062
X5.175Y-3.9688
X5.575Y-3.9688
X7.1437Y-7.9062
X7.5438Y-7.9062
X8.175Y-3.9688
X8.575Y-3.9688
X7.05Y-5.6562
X7.45Y-5.6562
X13.9875Y-6.4062
X14.3875Y-6.4062
X7.6125Y-7.1562
X8.0125Y-7.1562
X5.175Y-4.9062
X5.575Y-4.9062
X16.8Y-5.6562
X17.2Y-5.6562
X10.8Y-5.6562
X11.2Y-5.6562
X11.925Y-4.9062
X12.325Y-4.9062
X12.4875Y-6.4062
X12.8875Y-6.4062
X13.05Y-5.6562
X13.45Y-5.6562
X12.3Y-3.9688
X12.7Y-3.9688
X14.55Y-5.6562
X14.95Y-5.6562
X12.3Y-5.6562
X12.7Y-5.6562
X12.675Y-7.9062
X13.075Y-7.9062
X7.8Y-5.6562
X8.2Y-5.6562
X11.3625Y-7.1562
X11.7625Y-7.1562
X8.55Y-5.6562
X8.95Y-5.6562
X8.3625Y-7.1562
X8.7625Y-7.1562
X7.425Y-3.9688
X7.825Y-3.9688
X9.675Y-4.9062
X10.075Y-4.9062
X13.2375Y-6.4062
X13.6375Y-6.4062
X6.675Y-4.9062
X7.075Y-4.9062
X13.425Y-7.9062
X13.825Y-7.9062
X14.925Y-3.9688
X15.325Y-3.9688
X10.425Y-4.9062
X10.825Y-4.9062
X13.6125Y-7.1562
X14.0125Y-7.1562
X13.425Y-4.9062
X13.825Y-4.9062
X12.8625Y-7.1562
X13.2625Y-7.1562
X10.05Y-5.6562
X10.45Y-5.6562
X14.175Y-3.9688
X14.575Y-3.9688
X5.4562Y-6.4062
X5.8563Y-6.4062
X15.4875Y-5.6562
X15.8875Y-5.6562
X9.4875Y-6.4062
X9.8875Y-6.4062
X16.8Y-4.9062
X17.2Y-4.9062
X14.175Y-7.9062
X14.575Y-7.9062
X5.2687Y-7.9062
X5.6688Y-7.9062
X11.55Y-3.9688
X11.95Y-3.9688
X15.8625Y-8.0938
X16.2625Y-8.0938
X11.55Y-5.6562
X11.95Y-5.6562
X12.1125Y-7.1562
X12.5125Y-7.1562
X15.1125Y-8.0938
X15.5125Y-8.0938
X5.3625Y-5.6562
X5.7625Y-5.6562
X6.4875Y-6.4062
X6.8875Y-6.4062
X9.8625Y-7.1562
X10.2625Y-7.1562
X14.175Y-4.9062
X14.575Y-4.9062
X5.6437Y-7.1562
X6.0438Y-7.1562
X8.175Y-4.9062
X8.575Y-4.9062
X6.2062Y-7.9062
X6.6063Y-7.9062
X6.675Y-3.9688
X7.075Y-3.9688
X15.675Y-3.9688
X16.075Y-3.9688
X7.2375Y-6.4062
X7.6375Y-6.4062
X8.925Y-3.9688
X9.325Y-3.9688
X13.425Y-3.9688
X13.825Y-3.9688
X15.2062Y-6.4062
X15.6062Y-6.4062
X10.8Y-3.9688
X11.2Y-3.9688
X7.9875Y-6.4062
X8.3875Y-6.4062
X8.925Y-4.9062
X9.325Y-4.9062
X10.2375Y-6.4062
X10.6375Y-6.4062
X6.8625Y-7.1562
X7.2625Y-7.1562
X6.3Y-5.6562
X6.7Y-5.6562
X15.8625Y-7.3438
X16.2625Y-7.3438
X10.6125Y-7.1562
X11.0125Y-7.1562
X8.7375Y-6.4062
X9.1375Y-6.4062
X5.925Y-4.9062
X6.325Y-4.9062
X13.8Y-5.6562
X14.2Y-5.6562
X11.7375Y-6.4062
X12.1375Y-6.4062
X14.6437Y-7.1562
X15.0437Y-7.1562
X9.9562Y-7.9062
X10.3562Y-7.9062
X9.3Y-5.6562
X9.7Y-5.6562
X5.2687Y-6.4062
X5.6688Y-6.4062
X16.8Y-7.1562
X17.2Y-7.1562
X10.05Y-3.9688
X10.45Y-3.9688
X12.675Y-4.9062
X13.075Y-4.9062
X9.1125Y-7.1562
X9.5125Y-7.1562
T3
X5.375Y-6.8812
X6.3125Y-6.8812
X14.9375Y-6.1312
X15.875Y-6.1312
X8.1877Y-7.6312
X12.1248Y-7.6312
T4
X13.625Y-3.9688
X14.9375Y-6.7313
X15.4062Y-6.4062
X15.875Y-6.7313
X11.0Y-3.9688
X8.1875Y-6.4062
X9.125Y-4.9062
X10.4375Y-6.4062
X7.0625Y-7.1562
X6.5Y-5.6562
X16.0625Y-7.3438
X10.8125Y-7.1562
X8.9375Y-6.4062
X6.125Y-4.9062
X14.0Y-5.6562
X11.9375Y-6.4062
X14.8438Y-7.1562
X8.1877Y-8.2312
X10.1562Y-7.9062
X12.1248Y-8.2312
X9.5Y-5.6562
X5.4688Y-6.4062
X17.0Y-7.1562
X10.25Y-3.9688
X12.875Y-4.9062
X9.3125Y-7.1562
X15.5Y-4.9062
X17.0Y-6.4062
X7.625Y-4.9062
X16.8125Y-8.0938
X11.1875Y-6.4062
X11.375Y-4.9062
X5.375Y-3.9688
X7.3438Y-7.9062
X8.375Y-3.9688
X7.25Y-5.6562
X14.1875Y-6.4062
X7.8125Y-7.1562
X5.375Y-4.9062
X17.0Y-5.6562
X11.0Y-5.6562
X12.125Y-4.9062
X12.6875Y-6.4062
X13.25Y-5.6562
X12.5Y-3.9688
X14.75Y-5.6562
X12.5Y-5.6562
X12.875Y-7.9062
X8.0Y-5.6562
X11.5625Y-7.1562
X8.75Y-5.6562
X8.5625Y-7.1562
X7.625Y-3.9688
X9.875Y-4.9062
X13.4375Y-6.4062
X6.875Y-4.9062
X13.625Y-7.9062
X15.125Y-3.9688
X10.625Y-4.9062
X13.8125Y-7.1562
X13.625Y-4.9062
X13.0625Y-7.1562
X10.25Y-5.6562
X14.375Y-3.9688
X5.6562Y-6.4062
X15.6875Y-5.6562
X9.6875Y-6.4062
X17.0Y-4.9062
X14.375Y-7.9062
X5.4688Y-7.9062
X11.75Y-3.9688
X16.0625Y-8.0938
X11.75Y-5.6562
X12.3125Y-7.1562
X15.3125Y-8.0938
X5.5625Y-5.6562
X6.6875Y-6.4062
X10.0625Y-7.1562
X14.375Y-4.9062
X5.375Y-7.4813
X5.8438Y-7.1562
X6.3125Y-7.4813
X8.375Y-4.9062
X6.4062Y-7.9062
X6.875Y-3.9688
X15.875Y-3.9688
X7.4375Y-6.4062
X9.125Y-3.9688
T0
M30
