M48
; DRILL file {KiCad (5.1.4)-1} date 20/09/2020 6:26:47 PM
; FORMAT={-:-/ absolute / metric / decimal}
; #@! TF.CreationDate,2020-09-20T18:26:47+10:00
; #@! TF.GenerationSoftware,Kicad,Pcbnew,(5.1.4)-1
; #@! TF.FileFunction,Plated,1,2,PTH
FMAT,2
METRIC
T1C0.400
T2C0.600
T3C1.000
T4C1.470
T5C1.500
%
G90
G05
T1
X128.143Y-137.16
X128.143Y-165.354
X128.143Y-175.133
X128.201Y-146.489
X128.201Y-156.152
X129.376Y-180.303
X130.556Y-170.053
X130.556Y-179.578
X130.683Y-150.876
X130.683Y-160.655
X131.064Y-141.478
X144.551Y-184.379
X234.283Y-190.087
X251.777Y-191.198
X273.558Y-191.262
X291.631Y-191.985
X311.251Y-192.939
X370.586Y-116.275
X386.588Y-209.677
X395.478Y-152.908
X396.367Y-151.384
X397.51Y-174.498
X399.796Y-177.546
X400.812Y-189.738
X401.828Y-164.719
X401.828Y-173.99
X401.828Y-179.324
X403.098Y-213.36
X404.114Y-173.99
X404.114Y-177.006
X407.206Y-168.319
X407.924Y-137.668
X407.924Y-166.624
X407.924Y-170.942
X408.114Y-117.665
X408.623Y-155.384
X408.686Y-104.648
X408.813Y-167.259
X409.194Y-94.107
X409.194Y-151.638
X409.321Y-96.774
X410.21Y-130.937
X410.36Y-170.665
X410.464Y-156.21
X410.718Y-147.447
X410.972Y-115.443
X410.972Y-125.222
X411.353Y-140.081
X411.353Y-159.385
X412.115Y-108.331
X412.242Y-122.682
X412.365Y-94.873
X412.623Y-160.02
X413.258Y-109.474
X413.258Y-123.571
X413.385Y-147.447
X413.512Y-160.782
X413.766Y-140.335
X413.766Y-167.259
X414.147Y-100.33
X414.274Y-161.29
X414.782Y-109.347
X414.782Y-151.638
X415.036Y-162.052
X415.798Y-162.687
X415.798Y-194.564
X416.052Y-109.347
X416.052Y-165.608
X416.56Y-101.092
X416.719Y-173.037
X417.068Y-138.684
X417.068Y-194.564
X417.576Y-101.854
X417.576Y-109.347
X417.576Y-153.67
X417.576Y-162.052
X417.576Y-195.58
X418.084Y-196.596
X418.592Y-197.612
X418.719Y-101.092
X418.719Y-209.677
X418.846Y-119.38
X418.846Y-199.136
X418.846Y-200.66
X419.1Y-179.387
X419.452Y-172.945
X419.481Y-161.417
X419.735Y-202.819
X420.37Y-151.949
X420.37Y-177.546
X421.132Y-176.784
X421.259Y-100.33
X421.386Y-164.211
X421.893Y-176.022
X422.148Y-103.124
X422.91Y-175.514
X423.862Y-175.419
X424.688Y-170.688
X424.688Y-176.213
X425.45Y-175.419
X427.99Y-167.132
X428.949Y-151.949
X430.022Y-175.006
X430.657Y-96.012
X431.8Y-169.418
X432.181Y-96.012
X433.324Y-150.876
X435.005Y-159.923
X435.005Y-167.767
X436.118Y-165.1
X436.909Y-164.367
X437.642Y-165.1
X437.642Y-213.36
X438.531Y-146.177
X438.531Y-174.879
X438.785Y-155.702
X438.785Y-165.227
X439.039Y-178.435
X439.356Y-135.826
X439.42Y-207.518
X440.182Y-140.081
X440.182Y-149.606
X440.182Y-159.385
X440.182Y-168.656
T3
X429.181Y-93.662
X429.181Y-108.162
X431.681Y-93.662
X434.181Y-93.662
X434.181Y-108.162
T4
X218.44Y-141.129
X224.79Y-138.589
X223.202Y-160.179
X229.552Y-157.639
X347.027Y-179.229
X353.377Y-176.689
X304.165Y-122.079
X310.515Y-119.539
X404.178Y-183.991
X410.527Y-181.451
X232.727Y-179.229
X239.077Y-176.689
X189.865Y-122.079
X196.215Y-119.539
X361.315Y-122.079
X367.665Y-119.539
X380.365Y-98.266
X386.715Y-95.726
X427.99Y-179.229
X434.34Y-176.689
X204.153Y-160.179
X210.502Y-157.639
X313.69Y-98.266
X320.04Y-95.726
X289.877Y-179.229
X296.227Y-176.689
X251.777Y-179.229
X258.127Y-176.689
X151.765Y-122.079
X158.115Y-119.539
X137.477Y-141.129
X143.827Y-138.589
X427.99Y-160.179
X434.34Y-157.639
X275.59Y-98.266
X281.94Y-95.726
X180.34Y-141.129
X186.69Y-138.589
X423.227Y-203.041
X429.577Y-200.501
X342.265Y-122.079
X348.615Y-119.539
X189.865Y-98.266
X196.215Y-95.726
X270.827Y-179.229
X277.178Y-176.689
X213.677Y-179.229
X220.028Y-176.689
X394.652Y-141.129
X401.002Y-138.589
X182.721Y-198.279
X189.071Y-195.739
X337.502Y-160.179
X343.852Y-157.639
X389.89Y-122.079
X396.24Y-119.539
X385.127Y-203.041
X391.477Y-200.501
X356.553Y-160.179
X362.902Y-157.639
X247.015Y-122.079
X253.365Y-119.539
X404.178Y-203.041
X410.527Y-200.501
X313.69Y-141.129
X320.04Y-138.589
X132.715Y-122.079
X139.065Y-119.539
X135.096Y-198.279
X141.446Y-195.739
X299.402Y-160.179
X305.752Y-157.639
X361.315Y-98.266
X367.665Y-95.726
X327.977Y-179.229
X334.327Y-176.689
X294.64Y-141.129
X300.99Y-138.589
X266.065Y-122.079
X272.415Y-119.539
X294.64Y-98.266
X300.99Y-95.726
X135.096Y-160.179
X141.446Y-157.639
X144.621Y-179.229
X150.971Y-176.689
X254.159Y-198.279
X260.509Y-195.739
X256.54Y-98.266
X262.89Y-95.726
X256.54Y-141.129
X262.89Y-138.589
X261.303Y-160.179
X267.652Y-157.639
X170.815Y-98.266
X177.165Y-95.726
X427.99Y-122.079
X434.34Y-119.539
X351.79Y-141.129
X358.14Y-138.589
X194.627Y-179.229
X200.977Y-176.689
X280.352Y-160.179
X286.702Y-157.639
X323.215Y-198.279
X329.565Y-195.739
X208.915Y-122.079
X215.265Y-119.539
X332.74Y-141.129
X339.09Y-138.589
X132.715Y-98.266
X139.065Y-95.726
X275.59Y-141.129
X281.94Y-138.589
X373.221Y-179.229
X379.571Y-176.689
X323.215Y-122.079
X329.565Y-119.539
X237.49Y-141.129
X243.84Y-138.589
X370.84Y-141.129
X377.19Y-138.589
X227.965Y-122.079
X234.315Y-119.539
X139.859Y-160.179
X146.209Y-157.639
X199.39Y-141.129
X205.74Y-138.589
X399.415Y-98.266
X405.765Y-95.726
X158.909Y-198.279
X165.259Y-195.739
X427.99Y-141.129
X434.34Y-138.589
X342.265Y-98.266
X348.615Y-95.726
X308.928Y-179.229
X315.277Y-176.689
X175.577Y-179.229
X181.927Y-176.689
X227.965Y-98.266
X234.315Y-95.726
X185.102Y-160.179
X191.452Y-157.639
X208.915Y-98.266
X215.265Y-95.726
X387.509Y-160.179
X393.859Y-157.639
X361.315Y-198.279
X367.665Y-195.739
X161.29Y-141.129
X167.64Y-138.589
X318.452Y-160.179
X324.803Y-157.639
X342.265Y-198.279
X348.615Y-195.739
X285.115Y-122.079
X291.465Y-119.539
X242.252Y-160.179
X248.602Y-157.639
X166.052Y-160.179
X172.403Y-157.639
X170.815Y-122.079
X177.165Y-119.539
T2
G00X413.256Y-92.597
M15
G01X413.256Y-93.197
M16
G05
G00X413.256Y-96.527
M15
G01X413.256Y-97.627
M16
G05
G00X421.896Y-92.597
M15
G01X421.896Y-93.197
M16
G05
G00X421.896Y-96.527
M15
G01X421.896Y-97.627
M16
G05
T5
G00X426.081Y-100.512
M15
G01X426.081Y-101.812
M16
G05
G00X437.281Y-100.512
M15
G01X437.281Y-101.812
M16
G05
T0
M30
