M48
; DRILL file {KiCad (5.1.4)-1} date 20/09/2020 6:26:47 PM
; FORMAT={-:-/ absolute / metric / decimal}
; #@! TF.CreationDate,2020-09-20T18:26:47+10:00
; #@! TF.GenerationSoftware,Kicad,Pcbnew,(5.1.4)-1
; #@! TF.FileFunction,NonPlated,1,2,NPTH
FMAT,2
METRIC
T1C0.650
T2C1.750
T3C3.048
T4C3.988
%
G90
G05
T1
X414.686Y-96.547
X420.466Y-96.547
T2
X179.07Y-143.669
X189.23Y-143.669
X421.957Y-205.581
X432.118Y-205.581
X340.995Y-124.619
X351.155Y-124.619
X188.595Y-100.806
X198.755Y-100.806
X269.558Y-181.769
X279.717Y-181.769
X212.407Y-181.769
X222.567Y-181.769
X393.382Y-143.669
X403.542Y-143.669
X181.451Y-200.819
X191.611Y-200.819
X336.232Y-162.719
X346.392Y-162.719
X388.62Y-124.619
X398.78Y-124.619
X383.857Y-205.581
X394.017Y-205.581
X355.282Y-162.719
X365.442Y-162.719
X245.745Y-124.619
X255.905Y-124.619
X402.907Y-205.581
X413.067Y-205.581
X312.42Y-143.669
X322.58Y-143.669
X131.445Y-124.619
X141.605Y-124.619
X133.826Y-200.819
X143.986Y-200.819
X298.132Y-162.719
X308.292Y-162.719
X360.045Y-100.806
X370.205Y-100.806
X326.707Y-181.769
X336.868Y-181.769
X293.37Y-143.669
X303.53Y-143.669
X264.795Y-124.619
X274.955Y-124.619
X293.37Y-100.806
X303.53Y-100.806
X133.826Y-162.719
X143.986Y-162.719
X143.351Y-181.769
X153.511Y-181.769
X252.889Y-200.819
X263.049Y-200.819
X255.27Y-100.806
X265.43Y-100.806
X255.27Y-143.669
X265.43Y-143.669
X260.032Y-162.719
X270.192Y-162.719
X169.545Y-100.806
X179.705Y-100.806
X426.72Y-124.619
X436.88Y-124.619
X350.52Y-143.669
X360.68Y-143.669
X193.357Y-181.769
X203.517Y-181.769
X279.082Y-162.719
X289.243Y-162.719
X321.945Y-200.819
X332.105Y-200.819
X207.645Y-124.619
X217.805Y-124.619
X331.47Y-143.669
X341.63Y-143.669
X131.445Y-100.806
X141.605Y-100.806
X274.32Y-143.669
X284.48Y-143.669
X371.951Y-181.769
X382.111Y-181.769
X321.945Y-124.619
X332.105Y-124.619
X236.22Y-143.669
X246.38Y-143.669
X369.57Y-143.669
X379.73Y-143.669
X226.695Y-124.619
X236.855Y-124.619
X138.589Y-162.719
X148.749Y-162.719
X198.12Y-143.669
X208.28Y-143.669
X398.145Y-100.806
X408.305Y-100.806
X157.639Y-200.819
X167.799Y-200.819
X426.72Y-143.669
X436.88Y-143.669
X340.995Y-100.806
X351.155Y-100.806
X307.657Y-181.769
X317.817Y-181.769
X174.308Y-181.769
X184.468Y-181.769
X226.695Y-100.806
X236.855Y-100.806
X183.832Y-162.719
X193.992Y-162.719
X207.645Y-100.806
X217.805Y-100.806
X386.239Y-162.719
X396.399Y-162.719
X360.045Y-200.819
X370.205Y-200.819
X160.02Y-143.669
X170.18Y-143.669
X317.183Y-162.719
X327.342Y-162.719
X340.995Y-200.819
X351.155Y-200.819
X283.845Y-124.619
X294.005Y-124.619
X240.982Y-162.719
X251.142Y-162.719
X164.782Y-162.719
X174.942Y-162.719
X169.545Y-124.619
X179.705Y-124.619
X217.17Y-143.669
X227.33Y-143.669
X221.932Y-162.719
X232.093Y-162.719
X345.757Y-181.769
X355.917Y-181.769
X302.895Y-124.619
X313.055Y-124.619
X402.907Y-186.531
X413.067Y-186.531
X231.457Y-181.769
X241.617Y-181.769
X188.595Y-124.619
X198.755Y-124.619
X360.045Y-124.619
X370.205Y-124.619
X379.095Y-100.806
X389.255Y-100.806
X426.72Y-181.769
X436.88Y-181.769
X202.882Y-162.719
X213.042Y-162.719
X312.42Y-100.806
X322.58Y-100.806
X288.607Y-181.769
X298.767Y-181.769
X250.507Y-181.769
X260.667Y-181.769
X150.495Y-124.619
X160.655Y-124.619
X136.207Y-143.669
X146.368Y-143.669
X426.72Y-162.719
X436.88Y-162.719
X274.32Y-100.806
X284.48Y-100.806
T3
X136.525Y-174.784
X160.338Y-174.784
X207.969Y-193.834
X307.969Y-193.834
X379.412Y-155.734
X403.225Y-155.734
T4
X255.587Y-181.769
X155.575Y-124.619
X141.287Y-143.669
X431.8Y-162.719
X279.4Y-100.806
X184.15Y-143.669
X427.037Y-205.581
X346.075Y-124.619
X193.675Y-100.806
X274.637Y-181.769
X217.487Y-181.769
X398.462Y-143.669
X186.531Y-200.819
X341.312Y-162.719
X393.7Y-124.619
X388.938Y-205.581
X360.363Y-162.719
X250.825Y-124.619
X407.987Y-205.581
X317.5Y-143.669
X136.525Y-124.619
X138.906Y-200.819
X303.212Y-162.719
X365.125Y-100.806
X331.787Y-181.769
X298.45Y-143.669
X269.875Y-124.619
X298.45Y-100.806
X138.906Y-162.719
X136.525Y-190.024
X148.431Y-181.769
X160.338Y-190.024
X207.969Y-209.074
X257.969Y-200.819
X307.969Y-209.074
X260.35Y-100.806
X260.35Y-143.669
X265.113Y-162.719
X174.625Y-100.806
X431.8Y-124.619
X355.6Y-143.669
X198.438Y-181.769
X284.162Y-162.719
X327.025Y-200.819
X212.725Y-124.619
X336.55Y-143.669
X136.525Y-100.806
X279.4Y-143.669
X377.031Y-181.769
X327.025Y-124.619
X241.3Y-143.669
X374.65Y-143.669
X231.775Y-124.619
X143.669Y-162.719
X203.2Y-143.669
X403.225Y-100.806
X162.719Y-200.819
X431.8Y-143.669
X346.075Y-100.806
X312.738Y-181.769
X179.387Y-181.769
X231.775Y-100.806
X188.912Y-162.719
X212.725Y-100.806
X379.412Y-170.974
X391.319Y-162.719
X403.225Y-170.974
X365.125Y-200.819
X165.1Y-143.669
X322.262Y-162.719
X346.075Y-200.819
X288.925Y-124.619
X246.062Y-162.719
X169.862Y-162.719
X174.625Y-124.619
X222.25Y-143.669
X227.012Y-162.719
X350.837Y-181.769
X307.975Y-124.619
X407.987Y-186.531
X236.537Y-181.769
X193.675Y-124.619
X365.125Y-124.619
X384.175Y-100.806
X431.8Y-181.769
X207.962Y-162.719
X317.5Y-100.806
X293.688Y-181.769
T0
M30
